<svg width="212" height="160" viewBox="0 0 212 160" fill="none" xmlns="http://www.w3.org/2000/svg">
<path d="M60 78.16C60 57.368 60 46.972 66.44 40.44C72.88 34 83.276 34 104.16 34H107.84C128.632 34 139.028 34 145.56 40.44C152 46.88 152 57.276 152 78.16V81.84C152 102.632 152 113.028 145.56 119.56C139.12 126 128.724 126 107.84 126H104.16C83.368 126 72.972 126 66.44 119.56C60 113.12 60 102.724 60 81.84V78.16Z" fill="#0077FF"/>
<path d="M108.944 100.24C87.968 100.24 76.008 85.8878 75.548 61.9678H86.036C86.404 79.5398 94.132 86.9918 100.296 88.4638V61.9678H110.232V77.1478C116.304 76.5038 122.652 69.6038 124.768 61.9678H134.704C133.048 71.3518 126.148 78.2518 121.272 81.1038C126.148 83.4038 134.06 89.3838 137.004 100.332H126.148C123.848 93.0638 117.96 87.4518 110.324 86.6238V100.24H108.944Z" fill="white"/>
</svg>
